<svg id="Layer_1" data-name="Layer 1" xmlns="http://www.w3.org/2000/svg" viewBox="0 0 68 52"><defs><style>.cls-1{fill:#e8bc00;}.cls-2{fill:#fff;}</style></defs><title>WhatsApp Image 2020-01-06 at 19.35.18</title><rect class="cls-1" width="68" height="52" rx="2" ry="2"/><path class="cls-2" d="M51.68,26.65c0-5.69.56-5.69,0.56-8.51A5.54,5.54,0,0,0,47,12.45c-6.76-.85-17.3,1.69-22.43,1.69s-6.16-.42-8.28-1.18a4.76,4.76,0,0,1-2.92-4c0-.19,0-0.42-0.78-0.42h-3V29.8s0.08,0,3.13,0a0.21,0.21,0,0,0,.22-0.18c0-.61.62-9.6,5.18-9.76C23,19.71,43,18.33,43,29.49c0,5-3.76,8.81-7.46,8.81-1.38,0-21.78.11-27,.11a1,1,0,0,0-.91.67s0,3.92,0,4.19a0.76,0.76,0,0,0,.73.73H59.34A0.74,0.74,0,0,0,60,43.34v-4.8H57.93S51.68,32.34,51.68,26.65Z"/><polygon class="cls-2" points="58.2 8.5 58.2 14.14 54.4 20.09 58.2 26.04 58.2 31.89 60 31.89 60 8.5 58.2 8.5"/></svg>