<svg width="204" height="36" viewBox="0 0 204 36" fill="none" xmlns="http://www.w3.org/2000/svg">
<rect width="204" height="36" fill="black" fill-opacity="0.87"/>
<path d="M35.7808 18.45C35.7808 14.5108 36.1685 14.5108 36.1685 12.5585C36.197 11.5584 35.8337 10.5868 35.156 9.85091C34.4782 9.11499 33.5398 8.67301 32.5408 8.61924C27.8608 8.03078 20.5639 9.78924 17.0123 9.78924C13.4608 9.78924 12.7477 9.49847 11.28 8.97232C10.7214 8.74066 10.2373 8.35975 9.88077 7.87131C9.5242 7.38286 9.30892 7.3111 9.2585 6.70847C9.2585 6.57693 9.2585 6.23077 8.7185 6.23077H6.23313V20.7692C6.23313 20.7692 6.61847 20.7692 8.84768 20.7692C8.88407 20.7713 8.91992 20.7597 8.94813 20.7366C8.97633 20.7135 8.99484 20.6807 8.99999 20.6446C8.99999 20.2223 9.39003 13.86 12.547 13.7492C15.9254 13.6454 29.7716 12.69 29.7716 20.4162C29.7716 23.8777 27.1685 26.3077 24.607 26.3077C23.6516 26.3077 9.7823 26.3077 6.16845 26.3077C6.02892 26.3125 5.89408 26.3593 5.78165 26.4421C5.66922 26.5249 5.58444 26.6397 5.53845 26.7715C5.53845 26.7715 5.53845 29.7692 5.53845 29.9562C5.54358 30.0886 5.59848 30.2141 5.69216 30.3078C5.78585 30.4015 5.91144 30.4564 6.04384 30.4615H41.0839C41.2009 30.4494 41.3103 30.3974 41.3935 30.3142C41.4767 30.231 41.5287 30.1217 41.5408 30.0046V26.3077H40.1077C40.1077 26.3077 35.7808 22.3892 35.7808 18.45Z" fill="white"/>
<path d="M40.1538 5.53847V9.00001L37.3846 13.5L40.1538 18V21.7315H41.5385V5.53847H40.1538Z" fill="white"/>
<path d="M58.96 27.264C58.128 27.264 57.384 27.192 56.728 27.048C56.072 26.904 55.352 26.712 54.568 26.472C54.088 26.296 53.728 26.2 53.488 26.184L53.68 21.84H55.216L55.624 24.96C55.896 25.216 56.336 25.448 56.944 25.656C57.568 25.848 58.248 25.944 58.984 25.944C60.2 25.944 61.12 25.672 61.744 25.128C62.384 24.584 62.704 23.832 62.704 22.872C62.704 22.248 62.528 21.712 62.176 21.264C61.84 20.816 61.384 20.432 60.808 20.112C60.248 19.792 59.472 19.416 58.48 18.984C57.584 18.584 56.8 18.176 56.128 17.76C55.472 17.344 54.896 16.792 54.4 16.104C53.92 15.4 53.68 14.56 53.68 13.584C53.68 12.704 53.912 11.92 54.376 11.232C54.856 10.528 55.536 9.976 56.416 9.576C57.312 9.176 58.352 8.976 59.536 8.976C60.272 8.976 60.92 9.032 61.48 9.144C62.056 9.256 62.704 9.408 63.424 9.6C63.744 9.712 64.016 9.784 64.24 9.816L64.096 13.848H62.632L62.152 10.896C61.992 10.736 61.656 10.584 61.144 10.44C60.648 10.296 60.104 10.224 59.512 10.224C58.408 10.224 57.568 10.456 56.992 10.92C56.432 11.384 56.152 12.056 56.152 12.936C56.152 13.576 56.32 14.112 56.656 14.544C57.008 14.976 57.44 15.344 57.952 15.648C58.464 15.952 59.28 16.368 60.4 16.896C61.44 17.392 62.288 17.84 62.944 18.24C63.6 18.64 64.16 19.168 64.624 19.824C65.104 20.464 65.344 21.232 65.344 22.128C65.344 22.976 65.104 23.792 64.624 24.576C64.16 25.36 63.44 26.008 62.464 26.52C61.504 27.016 60.336 27.264 58.96 27.264ZM71.434 27.24C70.522 27.24 69.842 27.032 69.394 26.616C68.946 26.2 68.722 25.488 68.722 24.48V15.264H66.994V14.184C67.074 14.168 67.298 14.112 67.666 14.016C68.034 13.92 68.282 13.832 68.41 13.752C68.666 13.608 68.866 13.32 69.01 12.888C69.138 12.584 69.29 12.096 69.466 11.424C69.642 10.752 69.746 10.352 69.778 10.224H71.194L71.242 13.68H75.25V15.264H71.242V22.632C71.242 23.544 71.266 24.184 71.314 24.552C71.378 24.92 71.498 25.16 71.674 25.272C71.866 25.384 72.186 25.44 72.634 25.44C73.066 25.44 73.538 25.384 74.05 25.272C74.578 25.16 74.986 25.04 75.274 24.912L75.634 25.992C75.25 26.28 74.626 26.56 73.762 26.832C72.914 27.104 72.138 27.24 71.434 27.24ZM88.0234 27.216C87.5754 27.216 87.2394 27.128 87.0154 26.952C86.8074 26.776 86.7034 26.488 86.7034 26.088V25.272C86.1754 25.8 85.5114 26.264 84.7114 26.664C83.9274 27.064 83.1354 27.264 82.3354 27.264C80.8474 27.264 79.7914 26.864 79.1674 26.064C78.5434 25.264 78.2314 23.944 78.2314 22.104V15.144L76.8874 14.76V13.704L80.2474 13.392H80.2714L80.7274 13.68V21.912C80.7274 22.84 80.7914 23.568 80.9194 24.096C81.0634 24.608 81.3034 24.992 81.6394 25.248C81.9914 25.488 82.4954 25.608 83.1514 25.608C83.7914 25.608 84.3914 25.472 84.9514 25.2C85.5114 24.928 85.9994 24.608 86.4154 24.24V15.144L84.6874 14.76V13.704L88.3354 13.392H88.3594L88.9114 13.68V25.776H90.3514L90.3274 26.856C89.8794 26.968 89.4874 27.056 89.1514 27.12C88.8314 27.184 88.4554 27.216 88.0234 27.216ZM97.4515 27.264C96.4915 27.264 95.6115 27.024 94.8115 26.544C94.0115 26.064 93.3715 25.328 92.8915 24.336C92.4275 23.344 92.1955 22.12 92.1955 20.664C92.1955 19.304 92.4755 18.064 93.0355 16.944C93.5955 15.824 94.3955 14.944 95.4355 14.304C96.4915 13.648 97.7315 13.32 99.1555 13.32C99.9715 13.32 100.716 13.408 101.388 13.584V9.096L98.9395 8.808V7.776L103.26 7.344H103.332L103.859 7.728V25.776H105.252V26.88C104.74 26.992 104.292 27.08 103.908 27.144C103.54 27.208 103.148 27.24 102.732 27.24C102.316 27.24 102.02 27.168 101.844 27.024C101.668 26.88 101.58 26.576 101.58 26.112V25.344C101.132 25.888 100.54 26.344 99.8035 26.712C99.0835 27.08 98.2995 27.264 97.4515 27.264ZM98.4115 25.56C99.0355 25.56 99.6195 25.424 100.164 25.152C100.708 24.864 101.116 24.536 101.388 24.168V15.384C101.26 15.192 100.956 15.024 100.476 14.88C100.012 14.72 99.5155 14.64 98.9875 14.64C97.7395 14.64 96.7395 15.12 95.9875 16.08C95.2515 17.024 94.8835 18.488 94.8835 20.472C94.8835 22.2 95.2115 23.48 95.8675 24.312C96.5235 25.144 97.3715 25.56 98.4115 25.56ZM110.006 11.28C109.494 11.28 109.11 11.136 108.854 10.848C108.598 10.56 108.47 10.192 108.47 9.744C108.47 9.232 108.622 8.808 108.926 8.472C109.246 8.136 109.678 7.968 110.222 7.968C110.766 7.968 111.166 8.112 111.422 8.4C111.678 8.688 111.806 9.056 111.806 9.504C111.806 10.048 111.646 10.48 111.326 10.8C111.022 11.12 110.59 11.28 110.03 11.28H110.006ZM109.046 15.528L107.222 15.096V13.824L110.942 13.368H110.99L111.542 13.8V25.632L113.462 25.824V27H107.102V25.824L109.046 25.608V15.528ZM115.166 20.304C115.166 18.864 115.462 17.616 116.054 16.56C116.646 15.504 117.422 14.704 118.382 14.16C119.358 13.6 120.398 13.32 121.502 13.32C123.518 13.32 125.03 13.96 126.038 15.24C127.062 16.52 127.574 18.2 127.574 20.28C127.574 21.736 127.278 22.992 126.686 24.048C126.094 25.104 125.31 25.904 124.334 26.448C123.374 26.992 122.342 27.264 121.238 27.264C119.222 27.264 117.702 26.624 116.678 25.344C115.67 24.064 115.166 22.384 115.166 20.304ZM121.382 25.896C122.486 25.896 123.334 25.44 123.926 24.528C124.518 23.616 124.814 22.264 124.814 20.472C124.814 18.696 124.542 17.288 123.998 16.248C123.454 15.208 122.582 14.688 121.382 14.688C120.278 14.688 119.422 15.144 118.814 16.056C118.222 16.968 117.926 18.32 117.926 20.112C117.926 21.888 118.206 23.296 118.766 24.336C119.326 25.376 120.198 25.896 121.382 25.896ZM138.295 11.28C137.783 11.28 137.399 11.136 137.143 10.848C136.887 10.56 136.759 10.192 136.759 9.744C136.759 9.232 136.911 8.808 137.215 8.472C137.535 8.136 137.967 7.968 138.511 7.968C139.055 7.968 139.455 8.112 139.711 8.4C139.967 8.688 140.095 9.056 140.095 9.504C140.095 10.048 139.935 10.48 139.615 10.8C139.311 11.12 138.879 11.28 138.319 11.28H138.295ZM137.335 15.528L135.511 15.096V13.824L139.231 13.368H139.279L139.831 13.8V25.632L141.751 25.824V27H135.391V25.824L137.335 25.608V15.528ZM145.207 9.096L143.263 8.832V7.8L147.127 7.344H147.175L147.703 7.704V25.632L149.743 25.824V27H143.263V25.824L145.207 25.608V9.096ZM151.447 20.304C151.447 18.864 151.743 17.616 152.335 16.56C152.927 15.504 153.703 14.704 154.663 14.16C155.639 13.6 156.679 13.32 157.783 13.32C159.799 13.32 161.311 13.96 162.319 15.24C163.343 16.52 163.855 18.2 163.855 20.28C163.855 21.736 163.559 22.992 162.967 24.048C162.375 25.104 161.591 25.904 160.615 26.448C159.655 26.992 158.623 27.264 157.519 27.264C155.503 27.264 153.983 26.624 152.959 25.344C151.951 24.064 151.447 22.384 151.447 20.304ZM157.663 25.896C158.767 25.896 159.615 25.44 160.207 24.528C160.799 23.616 161.095 22.264 161.095 20.472C161.095 18.696 160.823 17.288 160.279 16.248C159.735 15.208 158.863 14.688 157.663 14.688C156.559 14.688 155.703 15.144 155.095 16.056C154.503 16.968 154.207 18.32 154.207 20.112C154.207 21.888 154.487 23.296 155.047 24.336C155.607 25.376 156.479 25.896 157.663 25.896ZM167.489 15.528L165.761 15.096V13.8L169.193 13.368H169.265L169.769 13.8V14.808L169.745 15.384C170.321 14.872 171.081 14.408 172.025 13.992C172.969 13.576 173.873 13.368 174.737 13.368C175.745 13.368 176.521 13.56 177.065 13.944C177.625 14.328 178.017 14.92 178.241 15.72C178.465 16.504 178.577 17.568 178.577 18.912V25.632L180.257 25.8V27H174.569V25.824L176.057 25.632V18.888C176.057 17.944 175.993 17.208 175.865 16.68C175.737 16.136 175.497 15.736 175.145 15.48C174.793 15.208 174.281 15.072 173.609 15.072C173.033 15.072 172.417 15.216 171.761 15.504C171.105 15.792 170.521 16.128 170.009 16.512V25.608L171.641 25.824V27H165.977V25.824L167.489 25.608V15.528ZM181.986 23.4C181.986 21.896 182.738 20.792 184.242 20.088C185.746 19.368 187.65 18.984 189.954 18.936V18.264C189.954 17.512 189.874 16.92 189.714 16.488C189.554 16.056 189.274 15.744 188.874 15.552C188.49 15.344 187.938 15.24 187.218 15.24C186.402 15.24 185.666 15.36 185.01 15.6C184.37 15.824 183.73 16.104 183.09 16.44L182.49 15.192C182.698 15.016 183.082 14.784 183.642 14.496C184.202 14.208 184.85 13.952 185.586 13.728C186.322 13.504 187.058 13.392 187.794 13.392C188.93 13.392 189.826 13.552 190.482 13.872C191.154 14.176 191.634 14.672 191.922 15.36C192.21 16.048 192.354 16.968 192.354 18.12V25.824H193.77V26.88C193.45 26.96 193.042 27.04 192.546 27.12C192.066 27.2 191.642 27.24 191.274 27.24C190.826 27.24 190.522 27.168 190.362 27.024C190.202 26.896 190.122 26.6 190.122 26.136V25.344C189.642 25.824 189.05 26.264 188.346 26.664C187.658 27.064 186.874 27.264 185.994 27.264C184.842 27.264 183.882 26.936 183.114 26.28C182.362 25.608 181.986 24.648 181.986 23.4ZM187.026 25.632C187.442 25.632 187.922 25.504 188.466 25.248C189.01 24.992 189.506 24.688 189.954 24.336V20.208C188.21 20.208 186.89 20.48 185.994 21.024C185.114 21.552 184.674 22.248 184.674 23.112C184.674 23.976 184.882 24.616 185.298 25.032C185.73 25.432 186.306 25.632 187.026 25.632Z" fill="white"/>
</svg>
