<svg width="220" height="36" viewBox="0 0 220 36" fill="none" xmlns="http://www.w3.org/2000/svg">
<rect width="220" height="36" fill="black" fill-opacity="0.87"/>
<path d="M35.7808 18.45C35.7808 14.5108 36.1685 14.5108 36.1685 12.5585C36.197 11.5584 35.8337 10.5868 35.156 9.85091C34.4782 9.11499 33.5398 8.67301 32.5408 8.61924C27.8608 8.03078 20.5639 9.78924 17.0123 9.78924C13.4608 9.78924 12.7477 9.49847 11.28 8.97232C10.7214 8.74066 10.2373 8.35975 9.88077 7.87131C9.5242 7.38286 9.30892 7.3111 9.2585 6.70847C9.2585 6.57693 9.2585 6.23077 8.7185 6.23077H6.23313V20.7692C6.23313 20.7692 6.61847 20.7692 8.84768 20.7692C8.88407 20.7713 8.91992 20.7597 8.94813 20.7366C8.97633 20.7135 8.99484 20.6807 8.99999 20.6446C8.99999 20.2223 9.39003 13.86 12.547 13.7492C15.9254 13.6454 29.7716 12.69 29.7716 20.4162C29.7716 23.8777 27.1685 26.3077 24.607 26.3077C23.6516 26.3077 9.7823 26.3077 6.16845 26.3077C6.02892 26.3125 5.89408 26.3593 5.78165 26.4421C5.66922 26.5249 5.58444 26.6397 5.53845 26.7715C5.53845 26.7715 5.53845 29.7692 5.53845 29.9562C5.54358 30.0886 5.59848 30.2141 5.69216 30.3078C5.78585 30.4015 5.91144 30.4564 6.04384 30.4615H41.0839C41.2009 30.4494 41.3103 30.3974 41.3935 30.3142C41.4767 30.231 41.5287 30.1217 41.5408 30.0046V26.3077H40.1077C40.1077 26.3077 35.7808 22.3892 35.7808 18.45Z" fill="white"/>
<path d="M40.1538 5.53847V9.00001L37.3846 13.5L40.1538 18V21.7315H41.5385V5.53847H40.1538Z" fill="white"/>
<path d="M58.96 27.264C58.128 27.264 57.384 27.192 56.728 27.048C56.072 26.904 55.352 26.712 54.568 26.472C54.088 26.296 53.728 26.2 53.488 26.184L53.68 21.84H55.216L55.624 24.96C55.896 25.216 56.336 25.448 56.944 25.656C57.568 25.848 58.248 25.944 58.984 25.944C60.2 25.944 61.12 25.672 61.744 25.128C62.384 24.584 62.704 23.832 62.704 22.872C62.704 22.248 62.528 21.712 62.176 21.264C61.84 20.816 61.384 20.432 60.808 20.112C60.248 19.792 59.472 19.416 58.48 18.984C57.584 18.584 56.8 18.176 56.128 17.76C55.472 17.344 54.896 16.792 54.4 16.104C53.92 15.4 53.68 14.56 53.68 13.584C53.68 12.704 53.912 11.92 54.376 11.232C54.856 10.528 55.536 9.976 56.416 9.576C57.312 9.176 58.352 8.976 59.536 8.976C60.272 8.976 60.92 9.032 61.48 9.144C62.056 9.256 62.704 9.408 63.424 9.6C63.744 9.712 64.016 9.784 64.24 9.816L64.096 13.848H62.632L62.152 10.896C61.992 10.736 61.656 10.584 61.144 10.44C60.648 10.296 60.104 10.224 59.512 10.224C58.408 10.224 57.568 10.456 56.992 10.92C56.432 11.384 56.152 12.056 56.152 12.936C56.152 13.576 56.32 14.112 56.656 14.544C57.008 14.976 57.44 15.344 57.952 15.648C58.464 15.952 59.28 16.368 60.4 16.896C61.44 17.392 62.288 17.84 62.944 18.24C63.6 18.64 64.16 19.168 64.624 19.824C65.104 20.464 65.344 21.232 65.344 22.128C65.344 22.976 65.104 23.792 64.624 24.576C64.16 25.36 63.44 26.008 62.464 26.52C61.504 27.016 60.336 27.264 58.96 27.264ZM69.274 32.976C69.002 32.976 68.73 32.96 68.458 32.928C68.202 32.896 68.018 32.848 67.906 32.784V30.696C68.002 30.76 68.186 30.808 68.458 30.84C68.746 30.872 69.018 30.888 69.274 30.888C70.042 30.888 70.714 30.616 71.29 30.072C71.882 29.544 72.45 28.52 72.994 27H71.842L67.282 15.12L66.178 14.808V13.68H71.962V14.808L70.114 15.096L72.466 22.176L73.57 25.68L74.602 22.152L76.738 15.096L75.13 14.808V13.68H79.954V14.808L78.754 15.096C76.402 22.296 75.018 26.384 74.602 27.36C74.058 28.736 73.562 29.808 73.114 30.576C72.666 31.36 72.138 31.952 71.53 32.352C70.922 32.768 70.17 32.976 69.274 32.976ZM81.0644 23.4C81.0644 21.896 81.8164 20.792 83.3204 20.088C84.8244 19.368 86.7284 18.984 89.0324 18.936V18.264C89.0324 17.512 88.9524 16.92 88.7924 16.488C88.6324 16.056 88.3524 15.744 87.9524 15.552C87.5684 15.344 87.0164 15.24 86.2964 15.24C85.4804 15.24 84.7444 15.36 84.0884 15.6C83.4484 15.824 82.8084 16.104 82.1684 16.44L81.5684 15.192C81.7764 15.016 82.1604 14.784 82.7204 14.496C83.2804 14.208 83.9284 13.952 84.6644 13.728C85.4004 13.504 86.1364 13.392 86.8724 13.392C88.0084 13.392 88.9044 13.552 89.5604 13.872C90.2324 14.176 90.7124 14.672 91.0004 15.36C91.2884 16.048 91.4324 16.968 91.4324 18.12V25.824H92.8484V26.88C92.5284 26.96 92.1204 27.04 91.6244 27.12C91.1444 27.2 90.7204 27.24 90.3524 27.24C89.9044 27.24 89.6004 27.168 89.4404 27.024C89.2804 26.896 89.2004 26.6 89.2004 26.136V25.344C88.7204 25.824 88.1284 26.264 87.4244 26.664C86.7364 27.064 85.9524 27.264 85.0724 27.264C83.9204 27.264 82.9604 26.936 82.1924 26.28C81.4404 25.608 81.0644 24.648 81.0644 23.4ZM86.1044 25.632C86.5204 25.632 87.0004 25.504 87.5444 25.248C88.0884 24.992 88.5844 24.688 89.0324 24.336V20.208C87.2884 20.208 85.9684 20.48 85.0724 21.024C84.1924 21.552 83.7524 22.248 83.7524 23.112C83.7524 23.976 83.9604 24.616 84.3764 25.032C84.8084 25.432 85.3844 25.632 86.1044 25.632ZM98.6215 27.24C97.7095 27.24 97.0295 27.032 96.5815 26.616C96.1335 26.2 95.9095 25.488 95.9095 24.48V15.264H94.1815V14.184C94.2615 14.168 94.4855 14.112 94.8535 14.016C95.2215 13.92 95.4695 13.832 95.5975 13.752C95.8535 13.608 96.0535 13.32 96.1975 12.888C96.3255 12.584 96.4775 12.096 96.6535 11.424C96.8295 10.752 96.9335 10.352 96.9655 10.224H98.3815L98.4295 13.68H102.438V15.264H98.4295V22.632C98.4295 23.544 98.4535 24.184 98.5015 24.552C98.5655 24.92 98.6855 25.16 98.8615 25.272C99.0535 25.384 99.3735 25.44 99.8215 25.44C100.254 25.44 100.726 25.384 101.238 25.272C101.766 25.16 102.174 25.04 102.462 24.912L102.822 25.992C102.438 26.28 101.814 26.56 100.95 26.832C100.102 27.104 99.3255 27.24 98.6215 27.24ZM110.195 27.264C108.259 27.264 106.779 26.632 105.755 25.368C104.747 24.104 104.243 22.416 104.243 20.304C104.243 18.912 104.507 17.688 105.035 16.632C105.563 15.576 106.299 14.76 107.243 14.184C108.203 13.608 109.291 13.32 110.507 13.32C111.995 13.32 113.147 13.736 113.963 14.568C114.795 15.384 115.235 16.56 115.283 18.096C115.283 19.072 115.227 19.816 115.115 20.328H106.859C106.891 21.912 107.259 23.192 107.963 24.168C108.667 25.128 109.667 25.608 110.963 25.608C111.603 25.608 112.267 25.496 112.955 25.272C113.659 25.032 114.203 24.752 114.587 24.432L115.043 25.488C114.579 25.968 113.891 26.384 112.979 26.736C112.067 27.088 111.139 27.264 110.195 27.264ZM112.643 19.056C112.691 18.72 112.715 18.376 112.715 18.024C112.699 16.984 112.475 16.168 112.043 15.576C111.627 14.968 110.963 14.664 110.051 14.664C109.123 14.664 108.379 15 107.819 15.672C107.275 16.344 106.963 17.472 106.883 19.056H112.643ZM119.098 9.096L117.154 8.832V7.8L121.018 7.344H121.066L121.594 7.704V25.632L123.634 25.824V27H117.154V25.824L119.098 25.608V9.096ZM128.146 11.28C127.65 11.28 127.274 11.136 127.018 10.848C126.762 10.56 126.634 10.192 126.634 9.744C126.634 9.232 126.786 8.808 127.09 8.472C127.41 8.136 127.842 7.968 128.386 7.968C128.93 7.968 129.33 8.112 129.586 8.4C129.842 8.688 129.97 9.056 129.97 9.504C129.97 10.048 129.81 10.48 129.49 10.8C129.186 11.12 128.746 11.28 128.17 11.28H128.146ZM125.266 13.824L128.986 13.368H129.034L129.562 13.8V26.832C129.562 28.16 129.37 29.272 128.986 30.168C128.602 31.08 128.082 31.752 127.426 32.184C126.77 32.616 126.034 32.832 125.218 32.832C124.594 32.832 124.226 32.8 124.114 32.736L123.994 31.608C124.122 31.624 124.306 31.608 124.546 31.56C124.802 31.512 125.058 31.44 125.314 31.344C125.97 31.12 126.426 30.576 126.682 29.712C126.954 28.864 127.09 27.72 127.09 26.28V15.6L125.266 15.168V13.824ZM138.859 27.264C136.923 27.264 135.443 26.632 134.419 25.368C133.411 24.104 132.907 22.416 132.907 20.304C132.907 18.912 133.171 17.688 133.699 16.632C134.227 15.576 134.963 14.76 135.907 14.184C136.867 13.608 137.955 13.32 139.171 13.32C140.659 13.32 141.811 13.736 142.627 14.568C143.459 15.384 143.899 16.56 143.947 18.096C143.947 19.072 143.891 19.816 143.779 20.328H135.523C135.555 21.912 135.923 23.192 136.627 24.168C137.331 25.128 138.331 25.608 139.627 25.608C140.267 25.608 140.931 25.496 141.619 25.272C142.323 25.032 142.867 24.752 143.251 24.432L143.707 25.488C143.243 25.968 142.555 26.384 141.643 26.736C140.731 27.088 139.803 27.264 138.859 27.264ZM141.307 19.056C141.355 18.72 141.379 18.376 141.379 18.024C141.363 16.984 141.139 16.168 140.707 15.576C140.291 14.968 139.627 14.664 138.715 14.664C137.787 14.664 137.043 15 136.483 15.672C135.939 16.344 135.627 17.472 135.547 19.056H141.307ZM154.537 11.28C154.025 11.28 153.641 11.136 153.385 10.848C153.129 10.56 153.001 10.192 153.001 9.744C153.001 9.232 153.153 8.808 153.457 8.472C153.777 8.136 154.209 7.968 154.753 7.968C155.297 7.968 155.697 8.112 155.953 8.4C156.209 8.688 156.337 9.056 156.337 9.504C156.337 10.048 156.177 10.48 155.857 10.8C155.553 11.12 155.121 11.28 154.561 11.28H154.537ZM153.577 15.528L151.753 15.096V13.824L155.473 13.368H155.521L156.073 13.8V25.632L157.993 25.824V27H151.633V25.824L153.577 25.608V15.528ZM161.449 9.096L159.505 8.832V7.8L163.369 7.344H163.417L163.945 7.704V25.632L165.985 25.824V27H159.505V25.824L161.449 25.608V9.096ZM167.689 20.304C167.689 18.864 167.985 17.616 168.577 16.56C169.169 15.504 169.945 14.704 170.905 14.16C171.881 13.6 172.921 13.32 174.025 13.32C176.041 13.32 177.553 13.96 178.561 15.24C179.585 16.52 180.097 18.2 180.097 20.28C180.097 21.736 179.801 22.992 179.209 24.048C178.617 25.104 177.833 25.904 176.857 26.448C175.897 26.992 174.865 27.264 173.761 27.264C171.745 27.264 170.225 26.624 169.201 25.344C168.193 24.064 167.689 22.384 167.689 20.304ZM173.905 25.896C175.009 25.896 175.857 25.44 176.449 24.528C177.041 23.616 177.337 22.264 177.337 20.472C177.337 18.696 177.065 17.288 176.521 16.248C175.977 15.208 175.105 14.688 173.905 14.688C172.801 14.688 171.945 15.144 171.337 16.056C170.745 16.968 170.449 18.32 170.449 20.112C170.449 21.888 170.729 23.296 171.289 24.336C171.849 25.376 172.721 25.896 173.905 25.896ZM183.731 15.528L182.003 15.096V13.8L185.435 13.368H185.507L186.011 13.8V14.808L185.987 15.384C186.563 14.872 187.323 14.408 188.267 13.992C189.211 13.576 190.115 13.368 190.979 13.368C191.987 13.368 192.763 13.56 193.307 13.944C193.867 14.328 194.259 14.92 194.483 15.72C194.707 16.504 194.819 17.568 194.819 18.912V25.632L196.499 25.8V27H190.811V25.824L192.299 25.632V18.888C192.299 17.944 192.235 17.208 192.107 16.68C191.979 16.136 191.739 15.736 191.387 15.48C191.035 15.208 190.523 15.072 189.851 15.072C189.275 15.072 188.659 15.216 188.003 15.504C187.347 15.792 186.763 16.128 186.251 16.512V25.608L187.883 25.824V27H182.219V25.824L183.731 25.608V15.528ZM198.228 23.4C198.228 21.896 198.98 20.792 200.484 20.088C201.988 19.368 203.892 18.984 206.196 18.936V18.264C206.196 17.512 206.116 16.92 205.956 16.488C205.796 16.056 205.516 15.744 205.116 15.552C204.732 15.344 204.18 15.24 203.46 15.24C202.644 15.24 201.908 15.36 201.252 15.6C200.612 15.824 199.972 16.104 199.332 16.44L198.732 15.192C198.94 15.016 199.324 14.784 199.884 14.496C200.444 14.208 201.092 13.952 201.828 13.728C202.564 13.504 203.3 13.392 204.036 13.392C205.172 13.392 206.068 13.552 206.724 13.872C207.396 14.176 207.876 14.672 208.164 15.36C208.452 16.048 208.596 16.968 208.596 18.12V25.824H210.012V26.88C209.692 26.96 209.284 27.04 208.788 27.12C208.308 27.2 207.884 27.24 207.516 27.24C207.068 27.24 206.764 27.168 206.604 27.024C206.444 26.896 206.364 26.6 206.364 26.136V25.344C205.884 25.824 205.292 26.264 204.588 26.664C203.9 27.064 203.116 27.264 202.236 27.264C201.084 27.264 200.124 26.936 199.356 26.28C198.604 25.608 198.228 24.648 198.228 23.4ZM203.268 25.632C203.684 25.632 204.164 25.504 204.708 25.248C205.252 24.992 205.748 24.688 206.196 24.336V20.208C204.452 20.208 203.132 20.48 202.236 21.024C201.356 21.552 200.916 22.248 200.916 23.112C200.916 23.976 201.124 24.616 201.54 25.032C201.972 25.432 202.548 25.632 203.268 25.632Z" fill="white"/>
</svg>
